<svg xmlns="http://www.w3.org/2000/svg" fill="none" viewBox="0 0 1328 680">
    <path fill="#fff" d="M1313.28 97.7951c-18.09-31.4058-50.8-51.581-89.47-55.7551-8.15-7.6527-17.49-13.914-27.73-18.9826-18.79-10.9324-41.16-17.09428-64.72-17.09428-5.36 0-10.73.29815-15.9.89446-5.17-.59631-10.44-.89446-15.81-.89446-14.31 0-28.13 2.28586-40.85 6.36068-13.03-4.17421-26.94-6.36068-41.56-6.36068-5.36 0-10.63.29815-15.9.89446-5.171-.59631-10.439-.89446-15.807-.89446-13.222 0-25.846 1.78893-37.676 5.16798-11.531-3.37905-23.858-5.16798-36.781-5.16798-5.368 0-10.637.39754-15.806.99385-5.169-.59631-10.438-.99385-15.905-.99385-12.724 0-24.952 1.78893-36.284 5.06868-12.625-3.27975-25.946-5.06868-39.962-5.06868-5.368 0-10.637.29815-15.806.79508-5.169-.49693-10.537-.79508-15.905-.79508-16.999 0-33.103 2.58401-47.816 7.25508-13.32-4.67107-27.933-7.25508-43.342-7.25508-5.368 0-10.636.39754-15.806.99385-5.169-.59631-10.438-.99385-15.905-.99385-12.724 0-24.951 1.78893-36.284 5.06868-12.625-3.27975-25.946-5.06868-39.962-5.06868-5.368 0-10.637.29815-15.806.79508-5.169-.49693-10.537-.79508-15.905-.79508-16.999 0-33.004 2.58401-47.716 7.25508-13.52-4.67107-28.232-7.25508-43.74-7.25508-5.368 0-10.636.29815-15.905.89446-5.169-.59631-10.438-.89446-15.806-.89446-13.52 0-26.443 1.9877-38.471 5.56558-12.128-3.57788-25.051-5.56558-38.67-5.56558-5.368 0-10.636.29815-15.806.89446-5.169-.59631-10.438-.89446-15.905-.89446-5.964 0-11.73.39754-17.396 1.09323C279.039 2.48463 265.917 0 252.099 0h-78.93C89.5668 0 0 56.4508 0 140.431v140.73c0 40.748 23.5597 75.533 59.3467 94.316 15.2094 9.442 33.1029 15.803 52.6863 18.089 15.508 14.112 35.489 24.25 58.054 28.921v109.522c0 40.748 23.56 75.533 59.347 94.317 15.21 9.441 33.103 15.802 52.686 18.088 21.771 19.778 51.991 31.803 85.989 31.803 5.368 0 10.736-.298 15.905-.894 5.169.596 10.438.894 15.806.894 14.315 0 27.933-2.186 40.558-6.162 12.625 3.976 26.244 6.162 40.559 6.162 5.368 0 10.637-.298 15.806-.894 5.169.596 10.537.894 15.905.894 18.788 0 36.483-3.677 52.189-10.336 23.56 8.845 50.698 13.218 82.211 13.218 5.368 0 10.736-.099 15.806-.397 5.169.298 10.438.397 15.806.397 37.874 0 69.486-6.261 96.127-19.181 20.18 10.436 44.038 16.299 69.785 16.299 5.368 0 10.736-.298 16.005-.795 5.169.497 10.438.795 15.706.795 15.707 0 30.717-2.186 44.535-6.261 13.718 4.075 28.53 6.261 44.038 6.261 5.368 0 10.537-.298 15.706-.795 5.269.497 10.538.795 16.005.795 66.103 0 119.293-39.555 129.433-96.304l27.53-154.643c66.01-1.69 117.2-48.898 117.2-108.927v-43.232l42.35-72.949c18.59-32.002 18.69-70.265.2-102.3669Z"/>
    <path fill="#F7931E" d="M1272.42 109.126c-14.91-25.8402-43.74-41.4437-77.53-42.1394-7.06-8.4477-15.91-15.3053-26.05-20.4733-14.91-9.541-33.3-14.8084-53.38-14.8084-21.27 0-40.86 6.0625-56.27 16.8954-.99-.5963-1.98-1.0932-2.98-1.5901-15.31-9.7398-34.29-15.3053-54.87-15.3053-20.579 0-38.87 5.168-53.98 14.5102-14.613-9.1434-32.507-14.5102-52.19-14.5102-19.682 0-36.482 4.9692-50.797 13.6157-16.303-8.8453-35.886-13.6157-57.16-13.6157-24.852 0-47.02 6.6588-64.416 17.9887-1.889-1.0933-3.778-2.1865-5.766-3.1803-14.613-9.3423-32.805-14.8084-52.686-14.8084-19.882 0-36.483 4.9692-50.798 13.6157-16.303-8.8453-35.886-13.6157-57.16-13.6157-24.553 0-46.523 6.46-63.82 17.5911-1.491-.8944-2.982-1.6895-4.572-2.4846-15.011-9.6404-33.799-15.2059-54.774-15.2059-20.976 0-39.267 5.4662-54.178 14.8084-15.11-9.4416-33.799-14.8084-54.575-14.8084-18.192 0-34.793 4.1741-48.71 11.4293-13.619-7.2552-29.723-11.4293-47.119-11.4293H181.42c-77.936 0-136.6866 45.419-136.6866 105.7455v140.73c0 30.312 17.3964 55.656 44.2366 69.271 14.215 9.044 31.811 14.61 51.394 15.206 16.502 18.983 42.746 30.909 73.562 30.909h.795v135.462c0 30.313 17.297 55.656 44.237 69.272 14.215 9.044 31.91 14.609 51.394 15.206 16.502 18.982 42.746 30.909 73.562 30.909 21.572 0 41.056-5.864 56.365-16.001 15.408 10.137 34.792 16.001 56.364 16.001 26.244 0 49.307-8.647 65.808-23.058 1.79 1.193 3.579 2.385 5.368 3.479 24.753 15.106 55.868 22.361 95.035 22.361 39.166 0 70.281-7.354 95.034-22.461 6.064-3.677 11.531-7.752 16.601-12.324 1.491.199 2.982.398 4.573.497 19.086 19.48 48.113 31.406 81.415 31.406 22.764 0 43.64-5.565 60.639-15.405 16.701 9.84 37.179 15.405 59.645 15.405 51.889 0 93.539-29.815 101.099-72.65l29.13-163.39c.99-5.665 1.29-11.429.99-17.094 7.06 1.391 14.51 2.186 22.27 2.186 52.39 0 91.95-34.486 91.95-80.204V262.08l46.22-79.608c13.42-23.057 13.42-50.587.2-73.644l-.2.298Z"/>
    <path fill="#000" d="M699.038 84.4774h-14.414l-64.218-.4969h-14.712v7.1557l-10.537-6.7582H491.871v3.9754l-6.56-4.2735h-96.029v3.3791l-5.07-3.3791H111.834V315.548l67.995 42.736h89.865v191.714l67.995 42.736h98.216v-4.672l6.759 4.672h98.216v-36.077l36.781 23.156c16.8 10.237 40.161 15.505 69.387 15.505s52.587-5.168 69.387-15.505c6.958-4.273 12.624-9.242 17.297-14.907l44.037 27.927h106.864l.795-4.274 6.561 4.274H996.07l2.087-12.026 35.193-202.05 2.98-16.995 15.91-2.882h83.8v-14.51l.1-81.297 66.4-113.796 12.72-21.865-67.99-42.7358H1041.4l-4.08 7.9508-5.86 11.628-31.02-19.5788h-86.68l-14.414-.1988-64.218-.3975h-14.712v7.1557l-10.538-6.7582H706.593v5.168M276.553 277.782h17.198c5.07 9.938 12.824 18.386 23.46 25.045 0 0 .199.099.299.199.099 0 .198.198.397.298.1 0 .199.099.298.198.1 0 .199.199.398.199.099 0 .199.1.298.199.1 0 .199.199.398.199.099 0 .199.099.298.199.1 0 .199.198.398.198.099 0 .199.1.298.199.099 0 .199.199.398.199.099 0 .198.099.298.199.099 0 .199.198.397.198.1 0 .199.1.299.199.099 0 .199.199.397.199.1 0 .199.099.299.199.099 0 .198.198.397.198.1 0 .199.1.298.199.1 0 .199.199.398.199.099 0 .199.099.298.199.1 0 .199.199.398.199.099 0 .199.099.298.198.1 0 .199.199.398.199.099 0 .199.1.298.199.099 0 .199.199.398.199.099 0 .198.099.298.198.099 0 .199.199.397.199.1 0 .199.1.299.199.099 0 .198.199.397.199.1 0 .199.099.299.199.099 0 .198.198.397.198.1 0 .199.1.298.199.1 0 .199.199.398.199.099 0 .199.099.298.199.1 0 .199.198.398.198.099 0 .199.1.298.199.1 0 .199.199.398.298.099 0 .199.1.298.199.099 0 .199.199.398.199.099 0 .198.099.298.199.099 0 .199.198.397.198.1 0 .199.1.299.199.099 0 .198.199.397.199.1 0 .199.099.299.199.099 0 .198.198.397.198.1 0 .199.1.298.199.1 0 .199.199.398.199.099 0 .199.099.298.199.1 0 .199.199.398.199.099 0 .199.099.298.198.099 0 .199.199.398.199.099 0 .199.099.298.199.099 0 .199.199.398.199.099 0 .198.099.298.198.099 0 .199.199.397.199.1 0 .199.1.299.199.099 0 .198.199.397.199.1 0 .199.099.299.198.099 0 .198.199.397.199.1 0 .199.1.298.199.1 0 .199.199.398.199.099 0 .199.099.298.199.1 0 .199.198.398.198.099 0 .199.1.298.199.1 0 .199.199.398.199.099 0 .199.099.298.199.099 0 .199.198.398.198.099 0 .198.1.298.199.099 0 .199.199.397.199.1 0 .199.099.299.199.099 0 .198.198.397.198.1 0 .199.1.299.199.099 0 .198.199.397.199.1 0 .199.099.298.199h-65.311v-40.45l-.696.696Z"/>
    <path fill="#000" d="M194.045 143.114h83.701V98.3906H126.348V300.838h67.697v-80.402h65.311v-43.63h-65.311v-33.692Z"/>
    <path fill="#F9C511" d="M273.869 220.436v-58.14h-65.211v-4.671h78.631v91.633c0 22.759 10.339 41.245 30.022 53.469 16.7 10.237 39.862 15.306 68.989 15.306 29.127 0 52.289-5.169 68.989-15.306 19.683-12.324 30.121-30.809 30.121-53.568V83.8809h-96.028V245.68h-2.088c-1.193 0-2.187 0-2.982-.099V83.8809H111.834V315.349h96.724v-80.403h65.212v-14.51h.099Zm27.835-122.0449h67.995V248.761c0 5.267 1.889 7.156 3.479 8.249 3.479 2.087 6.76 3.18 14.017 3.18 7.256 0 9.344-1.093 12.625-3.18 1.988-1.193 3.976-3.081 3.976-8.249V98.3911h67.001V249.159c0 17.69-7.754 31.604-23.162 41.145-14.315 8.746-34.992 13.218-61.434 13.218-26.443 0-47.02-4.373-61.335-13.119-15.409-9.64-23.162-23.455-23.162-41.145V98.3911ZM259.356 220.436h-65.212v80.403h-67.697V98.3911h151.399v44.6239h-83.702v33.692h65.212v43.729Z"/>
    <path fill="#000" d="M324.965 290.403c14.315 8.746 34.892 13.119 61.335 13.119 26.442 0 47.02-4.373 61.434-13.218 15.309-9.541 23.162-23.455 23.162-41.146V98.3906h-67.001V248.761c0 5.168-1.988 7.056-3.976 8.248-3.181 2.088-5.567 3.181-12.625 3.181s-10.537-1.093-14.017-3.181c-1.59-1.093-3.479-2.981-3.479-8.248V98.3906h-67.995V249.158c0 17.691 7.754 31.605 23.162 41.146v.099Zm245.538-90.441 47.318 101.174h66.703V98.6886l-64.217-.3976.397 78.912-34.992-78.5144h-79.327V301.136h64.118V199.962Z"/>
    <path fill="#F9C511" d="M570.504 315.647h14.513v-50.488l19.683 42.14 3.877 8.348h90.462V84.2782h-14.415l-64.217-.497h-14.713v24.3498l-6.76-15.3057-3.876-8.6465H491.772V315.647h78.732ZM506.385 98.689h79.428l34.991 78.514-.497-78.9115 64.218.3975v202.448h-66.703l-47.418-101.174v101.174h-64.118V98.689h.099Z"/>
    <path fill="#000" d="M899.246 301.136V101.173l-1.491-2.4844-62.727-.3976.398 78.912-34.992-78.5144h-79.328V301.136h64.019V199.962l47.418 101.174h66.703ZM1050.25 98.8887l-29.13 57.5443-29.524-57.5443h-76.842l69.387 117.0753v85.372h69.289l.2-85.173 68.29-117.2743h-71.67Z"/>
    <path fill="#F9C511" d="M1121.92 84.3776h-80.62l-4.07 7.9508-16.31 32.1016-16.5-32.201-4.08-7.8514h-86.679l-14.415-.1988-64.217-.3976h-14.713v24.3498l-6.759-15.3057-3.877-8.6465H706.395V315.647h93.145v-50.488l19.683 42.14 3.877 8.348h90.461V125.622l55.967 94.317v95.907h98.312v-14.51l.1-81.298 66.41-113.796 12.72-21.8644h-25.25.1ZM785.126 301.137h-64.118V98.689h79.427l34.991 78.514-.497-78.9115 62.826.3975 1.491 2.385v199.963h-66.702l-47.418-101.174v101.274Zm268.304.199h-69.289v-85.372L914.754 98.8878h76.743l29.523 57.4442 29.13-57.4442h71.67l-68.29 117.1752v85.173l-.1.1Z"/>
    <path fill="#000" d="M389.581 408.374h-36.384v-75.731h-68.989v202.646h69.188V452.7h35.886v82.589h69.189V332.643h-68.89v75.731Z"/>
    <path fill="#F9C511" d="M389.581 318.131h-14.514v75.731h-7.356v-75.731h-98.017v231.568h98.216v-82.59h6.759v82.59h98.216V318.131h-83.304Zm68.89 217.157h-69.189v-82.59h-35.787v82.59h-69.188V332.741h68.99v75.731h36.383v-75.731h68.791v202.547Z"/>
    <path fill="#000" d="M640.884 344.271c-14.513-8.846-35.29-13.318-61.732-13.318-26.443 0-47.318 4.472-61.733 13.318-15.607 9.541-23.46 23.256-23.46 40.748v98.689c0 17.492 7.853 31.207 23.46 40.748 14.514 8.845 35.29 13.318 61.733 13.318 26.442 0 47.318-4.473 61.732-13.318 15.607-9.541 23.461-23.256 23.461-40.748v-98.689c0-17.492-7.854-31.207-23.461-40.748Zm-61.832 149.376c-19.981 0-17.495-7.852-17.495-11.628v-95.41c0-3.777-2.486-11.628 17.495-11.628s17.297 7.851 17.297 11.628v95.41c0 3.776 2.684 11.628-17.297 11.628Z"/>
    <path fill="#F9C511" d="M648.44 331.946c-16.8-10.237-40.161-15.505-69.387-15.505s-52.587 5.168-69.387 15.505c-19.882 12.125-30.419 30.511-30.419 53.071v98.69c0 22.56 10.537 40.946 30.419 53.071 16.8 10.237 40.161 15.505 69.387 15.505s52.587-5.168 69.387-15.505c19.881-12.125 30.419-30.511 30.419-53.071v-98.69c0-22.56-10.538-40.946-30.419-53.071Zm15.905 151.761c0 17.492-7.853 31.207-23.46 40.748-14.514 8.845-35.29 13.317-61.733 13.317-26.442 0-47.318-4.472-61.732-13.317-15.607-9.541-23.461-23.256-23.461-40.748v-98.69c0-17.492 7.854-31.207 23.461-40.748 14.513-8.845 35.29-13.317 61.732-13.317 26.443 0 47.319 4.472 61.733 13.317 15.607 9.541 23.46 23.256 23.46 40.748v98.69Z"/>
    <path fill="#F9C511" d="M579.052 374.98c-19.981 0-17.495 7.852-17.495 11.629v95.409c0 3.777-2.486 11.628 17.495 11.628 19.982 0 17.297-7.851 17.297-11.628v-95.409c0-3.777 2.685-11.629-17.297-11.629Zm-2.982 14.61h5.766v89.546h-5.766V389.59Z"/>
    <path fill="#000" d="m888.51 333.238-15.507 94.714-16.8-94.714h-71.077l-15.906 94.416-15.805-94.416h-67.3l35.787 202.05h82.608l15.707-83.582 15.806 83.582h79.825l35.19-202.05H888.51Z"/>
    <path fill="#F9C511" d="M888.51 318.728h-12.326l-1.988 12.125-1.79 10.635-1.888-10.833-2.088-12.026h-95.531l-2.088 12.125-1.59 9.243-1.591-9.243-1.988-12.125h-96.824l2.983 16.995 35.787 202.05 2.087 12.026h106.864l2.187-11.827 1.491-7.852 1.491 7.852 2.187 11.827h104.081l2.087-12.026 35.191-202.05 2.982-16.995H888.51v.099Zm-52.487 216.561-15.806-83.583-15.706 83.583h-82.609l-35.787-202.05h67.2l15.806 94.415 15.906-94.415h71.076l16.701 94.813 15.508-94.813h62.527l-35.19 202.05h-79.825.199Z"/>
</svg>