<svg data-name="Layer 2" xmlns="http://www.w3.org/2000/svg" viewBox="0 0 369.03 188.86">
    <path d="M365.19 27.19c-5.03-8.73-14.14-14.34-24.87-15.51-2.27-2.12-4.87-3.88-7.72-5.27-5.23-3.05-11.44-4.76-18-4.76-1.5 0-2.98.09-4.43.26-1.44-.17-2.91-.26-4.39-.26-3.98 0-7.81.62-11.37 1.77-3.61-1.15-7.5-1.77-11.54-1.77-1.5 0-2.97.09-4.42.25-1.44-.16-2.91-.25-4.4-.25-3.67 0-7.19.5-10.49 1.43-3.2-.93-6.63-1.43-10.22-1.43-1.5 0-2.96.1-4.4.27-1.44-.17-2.91-.27-4.42-.27-3.54 0-6.93.5-10.1 1.41-3.5-.91-7.23-1.41-11.11-1.41-1.5 0-2.96.08-4.4.22-1.45-.14-2.92-.22-4.42-.22-4.74 0-9.21.72-13.3 2.02-3.72-1.3-7.77-2.02-12.05-2.02-1.5 0-2.96.1-4.4.27-1.44-.17-2.91-.27-4.42-.27-3.54 0-6.93.5-10.1 1.41-3.5-.91-7.23-1.41-11.11-1.41-1.5 0-2.96.08-4.4.22-1.45-.14-2.92-.22-4.42-.22-4.73 0-9.19.71-13.27 2.01-3.75-1.3-7.85-2.01-12.16-2.01-1.5 0-2.97.09-4.41.26-1.44-.17-2.91-.26-4.4-.26-3.76 0-7.35.55-10.69 1.54-3.36-1-6.97-1.54-10.75-1.54-1.5 0-2.96.09-4.4.26-1.44-.16-2.92-.26-4.42-.26-1.64 0-3.26.11-4.83.3C77.6.68 73.95-.01 70.11-.01H48.16C24.9 0 0 15.69 0 39.05v39.14c0 11.33 6.56 21.02 16.51 26.22 4.24 2.63 9.22 4.4 14.64 5.03 4.32 3.93 9.87 6.76 16.13 8.05v30.47c0 11.33 6.56 21.02 16.51 26.22 4.24 2.63 9.22 4.4 14.64 5.03 6.04 5.49 14.46 8.85 23.91 8.85 1.5 0 2.98-.09 4.43-.26 1.44.16 2.9.26 4.39.26 3.97 0 7.76-.61 11.27-1.7 3.51 1.1 7.3 1.7 11.27 1.7 1.49 0 2.95-.09 4.39-.26 1.45.17 2.92.26 4.43.26 5.23 0 10.15-1.03 14.53-2.88 6.56 2.46 14.11 3.67 22.86 3.67 1.5 0 2.97-.04 4.41-.11 1.44.07 2.9.11 4.41.11 10.53 0 19.32-1.75 26.74-5.32 5.61 2.9 12.24 4.54 19.4 4.54 1.5 0 2.99-.07 4.44-.21 1.43.14 2.89.21 4.38.21 4.37 0 8.53-.62 12.4-1.75 3.81 1.14 7.92 1.75 12.23 1.75 1.48 0 2.94-.08 4.38-.22 1.45.15 2.94.22 4.44.22 18.38 0 33.18-11.01 35.99-26.79l7.66-43.01c18.35-.46 32.58-13.59 32.58-30.29V75.94l11.78-20.28c5.18-8.91 5.2-19.56.07-28.48Z" style="fill:#fff;stroke-width:0"/>
    <path d="M353.86 30.7c-4.14-7.19-12.17-11.54-21.57-11.72-1.98-2.34-4.44-4.26-7.26-5.69-4.14-2.65-9.26-4.13-14.83-4.13-5.91 0-11.35 1.7-15.64 4.69-.28-.15-.56-.3-.84-.44-4.27-2.71-9.54-4.25-15.25-4.25s-10.8 1.44-15.01 4.05c-4.05-2.55-9.05-4.05-14.51-4.05s-10.14 1.4-14.12 3.8c-4.53-2.45-9.98-3.8-15.91-3.8-6.9 0-13.08 1.85-17.92 5.01-.52-.31-1.06-.61-1.6-.89-4.07-2.6-9.12-4.13-14.64-4.13s-10.14 1.4-14.12 3.8c-4.53-2.45-9.98-3.8-15.91-3.8-6.82 0-12.94 1.81-17.76 4.91-.41-.24-.84-.47-1.27-.68-4.18-2.67-9.41-4.22-15.22-4.22s-10.92 1.51-15.07 4.12c-4.19-2.61-9.41-4.12-15.19-4.12-5.05 0-9.67 1.15-13.55 3.19-3.78-2.03-8.26-3.19-13.1-3.19H50.43c-21.67 0-38.01 12.64-38.01 29.4V77.7c0 8.42 4.82 15.47 12.31 19.27 3.96 2.53 8.86 4.05 14.3 4.24 4.59 5.29 11.9 8.59 20.44 8.59h.22v37.68c0 8.42 4.82 15.47 12.31 19.27 3.96 2.53 8.86 4.06 14.3 4.24 4.59 5.29 11.9 8.59 20.44 8.59 6.01 0 11.41-1.63 15.68-4.44 4.27 2.81 9.67 4.44 15.68 4.44 7.31 0 13.72-2.41 18.29-6.42.49.33.98.66 1.5.98 6.88 4.19 15.52 6.23 26.42 6.23s19.54-2.04 26.42-6.23c1.68-1.02 3.22-2.17 4.62-3.42.42.05.84.1 1.26.14 5.3 5.43 13.39 8.73 22.64 8.73 6.33 0 12.14-1.55 16.87-4.29 4.64 2.73 10.35 4.29 16.58 4.29 14.44 0 26-8.31 28.12-20.2l8.09-45.44c.28-1.58.36-3.18.27-4.76 1.97.4 4.04.61 6.19.61 14.57 0 25.56-9.59 25.56-22.31V73.3l12.86-22.14c3.72-6.41 3.74-14.06.05-20.47Z" style="fill:#f7931e;stroke-width:0"/>
    <path d="M342.21 39.55c-9.3-5.82-18.58-12.11-27.92-17.68-2.64 0-18.32-.01-18.68.01-1.07 1.92-2.52 4.91-3.65 7.07-.68 1.03-.58 2.03-1.35 1.39-4.38-2.81-8.88-5.64-13.22-8.45-.32-.06-2.8 0-6.01-.03-4.52-.01-10.25.01-14.31 0-.22-.02.87 1.65 1.85 3.39.93 1.6 1.91 3.26 2.04 3.53-3.46-2.08-7.14-4.54-10.61-6.74-.2-.15-.22-.19-.43-.18-3.24-.03-8.1.02-12.47 0-1.97.07-3.15-.14-4.46.07-.02.34 0 6.16-.01 7.1-.07.2-.16.09-.39-.03-3.67-2.36-7.46-4.72-11.13-7.12-3.05.07-13.15-.1-17.16-.03-2.22.08-3.41-.13-4.74.06-.03.35.03 7.24-.03 7.89-.04.08-.13.03-.27-.05-4.17-2.58-8.34-5.49-12.51-7.9-3.27-.03-8.08.02-12.47 0-1.97.07-3.15-.14-4.46.07-.05.46.09 6.2-.07 7.21-3.84-2.22-7.67-4.86-11.47-7.25-4.54.02-15.89-.07-21.04-.03h-.82c-.02 0-.03.02-.04.06-.02.34 0 6.52-.01 7.47-.05.24-.19.11-.38.02-3.83-2.46-7.75-4.92-11.54-7.38-.2-.15-.22-.19-.41-.18h-17.91c-.05 0-.08 0-.1.02-.05.02-.02.37-.03 1.09-.11 1.21.12 5.65-.05 6.01-3.86-2.06-7.63-5.1-11.5-7.12-3.61-.03-8.93.02-13.8 0-2.14.03-3.33-.03-4.67 0-.15.88.03 4.73-.08 5.14-2.68-1.53-5.49-3.45-8.13-5.15-1.23.01-2.23 0-3.8 0-9.55.02-29.88-.04-39.45.02.29 5.03-.21 16.64 0 23.87.03 13.47-.03 25.16 0 34 9.25 5.76 18.47 11.75 27.65 17.59.25.22.25.17.67.18h18.17c.03 1.07.08 4.08.05 8.94.11 13.59-.15 33.41.06 42 9.38 5.77 18.67 12.04 28 17.74h18.54c.12-.3 0-6.93.08-7.59.04-.09.15-.04.3.05 3.99 2.47 7.98 5.23 11.95 7.55 4.24.07 13.74-.03 18.57-.02.03-.02 0-13.12.01-14.53 5.6 3.1 11.37 7.25 17 10.69 10.89 7 38.56 7.77 43.11-7.16.15-.4.19-.73.53-.51 5.91 3.79 11.9 7.57 17.78 11.36.25.2.23.18.51.18h22.38c.52.04.29-.06.48-.8.09-.51.23-1.24.37-1.99.41-1.48.36-3.61.87-3.12 3.17 1.89 6.25 4.26 9.5 5.91 4.58.06 13.57-.05 19.38 0 1.49-.11 2.15.21 2.13-.17 2.34-12.48 8.36-47.37 10.27-57.73-5.58-3.4-11.1-7.07-16.67-10.57-.18-.14-.49-.15-.4-.41.45-2.91 1.16-9.3 1.79-13.68.32-1.62.15-3.4.68-2.76 8.76 5.48 17.44 11.34 26.25 16.63 4.1.01 17.49 0 18.46 0 .15-.71 0-23.22.05-24.35 4.71-8.61 18.95-31.88 19.22-33.6l-.07-.02Z" style="stroke-width:0;fill:#000"/>
    <path d="M24.53 79.79h18.83V56.27h19.22V44.62H43.36v-11.1h24.5V21.88H24.53v57.91zm81.46-14.15c0 1.48-.58 2.02-1.14 2.36-.92.6-2.47.92-4.48.92s-3.63-.32-4.61-.91c-.47-.3-1-.85-1-2.36V21.88H75.93v43.15c0 5.07 2.23 9.03 6.63 11.78 4.09 2.49 9.99 3.76 17.54 3.76s13.45-1.26 17.56-3.77c4.39-2.74 6.61-6.7 6.61-11.77V21.88h-18.29v43.77Zm63.8-18.09-11.51-25.67h-21.92v57.91h17.2V46.93l14.9 32.86H187V21.88h-17.21v25.67zm46.96-.62 14.9 32.86h18.53V21.88h-17.2v25.68l-11.51-25.68h-21.93v57.91h17.21V46.93zm78.83-25.05-9.09 17.73-9.08-17.73h-20.46l19.45 33.49v24.42h18.83V55.37l19.45-33.49h-19.1zm-193.65 90.65H89.89V90.55H71.06v57.92h18.83v-24.29h12.04v24.29h18.83V90.55h-18.83v21.98zm72.7-18.91c-4.18-2.54-10.17-3.83-17.81-3.83s-13.63 1.29-17.81 3.83c-4.49 2.74-6.76 6.67-6.76 11.71v28.38c0 5.03 2.28 8.97 6.76 11.71 4.18 2.55 10.17 3.84 17.81 3.84s13.63-1.29 17.81-3.84c4.49-2.74 6.76-6.67 6.76-11.71v-28.38c0-5.03-2.28-8.97-6.76-11.71Zm-12.07 11.16v29.46c0 1.09 0 3.35-5.75 3.35s-5.75-2.26-5.75-3.35v-29.46c0-1.09 0-3.35 5.75-3.35s5.75 2.26 5.75 3.35Zm80.49 17.94-5.46-32.17h-19.57l-5.46 32.17-5.14-32.17h-18.38l10.31 57.92h23.05l5.27-28.33 5.26 28.33h21.84l10.31-57.92h-16.89l-5.14 32.17z" style="stroke:#efca2f;stroke-miterlimit:10;stroke-width:4px;fill:#000"/>
</svg>