<svg width="566" height="566" viewBox="0 0 566 566" fill="none" xmlns="http://www.w3.org/2000/svg">
<g clip-path="url(#clip0_400_2)">
<path d="M299.647 565.028C447.979 556.385 566 432.97 566 282.507C566 132.044 447.979 8.64315 299.647 0V33.3607C429.601 41.9506 532.706 150.423 532.706 282.521C532.706 414.618 429.601 523.077 299.647 531.68V565.028Z" fill="white"/>
<path d="M266.353 531.667C136.399 523.077 33.2941 414.605 33.2941 282.507C33.2941 150.409 136.399 41.9506 266.353 33.3607V0C118.021 8.64315 0 132.058 0 282.521C0 432.983 118.021 556.385 266.353 565.041V531.667Z" fill="white"/>
<path d="M299.647 113.52C385.493 121.91 452.8 194.505 452.8 282.508C452.8 370.511 385.493 443.105 299.647 451.495V484.923C403.871 476.426 486.094 388.889 486.094 282.508C486.094 176.126 403.871 88.5761 299.647 80.0928V113.52Z" fill="white"/>
</g>
<defs>
<clipPath id="clip0_400_2">
<rect width="566" height="566" fill="white"/>
</clipPath>
</defs>
</svg>
