<svg width="39" height="60" viewBox="0 0 39 60" fill="none" xmlns="http://www.w3.org/2000/svg">
    <path d="M14.7238 0.55826C15.0851 0.485074 15.7644 0.324064 16.2414 0.221604C16.7762 0.0898689 18.0047 0.00204559 19.4645 0.00204559C21.4736 -0.0125916 22.0228 0.0459572 23.367 0.353339C24.2198 0.543623 25.3038 0.851004 25.7808 1.01201C26.2578 1.18766 27.2406 1.61214 27.9488 1.97807L27.9783 1.99328C28.6782 2.35489 29.4259 2.74123 29.6255 2.88558C29.8423 3.01731 30.3626 3.38324 30.7818 3.67599C31.2154 3.96873 32.2127 4.90551 33.0076 5.73983C33.8026 6.57416 34.7276 7.65731 35.0745 8.1257C35.4069 8.59409 36.0429 9.70652 36.4765 10.5994C36.8956 11.4923 37.416 12.7364 37.6039 13.3805C37.8062 14.0245 38.0808 15.1516 38.2398 15.8688C38.4133 16.7763 38.5 17.8009 38.5 19.1622C38.4855 20.6405 38.4133 21.5334 38.1676 22.6751C37.9941 23.5241 37.6761 24.7097 37.4738 25.3098C37.2859 25.9099 36.8378 27.0077 36.4909 27.7249C36.1441 28.4422 35.4792 29.5839 35.0022 30.2425C34.5397 30.9012 33.7448 31.8819 33.2244 32.4381C32.7041 32.9797 31.9525 33.8287 31.5623 34.3117C31.1575 34.7947 30.5071 35.6144 30.1024 36.1413C29.6977 36.6683 28.8594 37.8832 28.2235 38.8492C27.6019 39.8153 26.9949 40.7667 26.8937 40.9716C26.7925 41.1765 26.5757 41.5717 26.4168 41.8499C26.2433 42.128 25.7663 43.0501 25.3327 43.8991C24.9136 44.748 24.2053 46.2557 23.7573 47.2656C23.2621 48.419 22.6684 49.6355 22.3408 50.8517C22.2975 51.0128 22.0373 51.8032 21.7627 52.6082C21.5025 53.4133 21.1412 54.5696 20.9677 55.1697C20.7943 55.7698 20.3607 57.336 20.3607 57.336C20.3607 57.336 20.0927 58.7538 19.9271 59.4584C19.8259 59.8536 19.7103 60 19.4935 60C19.2622 60 19.1755 59.8536 19.0454 59.1657C18.9587 58.6973 18.7563 57.7898 18.5973 57.1457C18.4239 56.5017 18.0336 55.1112 17.7301 54.0719C17.4121 53.0327 17.0363 51.8471 16.8918 51.4372C16.7328 51.042 16.4437 50.2516 16.2269 49.6808L16.1999 49.6095C15.9889 49.0538 15.7446 48.4105 15.6199 48.1439C15.5042 47.8657 15.3597 47.4998 15.2874 47.3388C15.2296 47.1778 14.7238 46.0946 14.1745 44.9237C13.6108 43.7527 12.8592 42.2743 12.4834 41.6303C12.1076 40.9863 11.6162 40.1666 11.385 39.8006C11.1537 39.4347 10.9224 39.0395 10.8646 38.9224C10.8068 38.8053 10.3443 38.1027 9.82397 37.3855C9.30364 36.6683 8.65322 35.7754 8.3786 35.4095C8.08953 35.0435 7.77155 34.6337 7.64147 34.502C7.52584 34.3702 7.32349 34.136 7.20786 33.9897C7.09223 33.8579 6.44181 33.1407 5.7914 32.4088C5.12653 31.6916 4.23041 30.5646 3.81125 29.9205C3.39209 29.2765 2.85731 28.3543 2.6116 27.8713C2.38034 27.3883 2.06236 26.6711 1.88892 26.2612C1.72993 25.866 1.48421 25.2073 1.36858 24.7975C1.2385 24.4023 1.00724 23.3777 0.8338 22.5287C0.631449 21.5188 0.515819 20.4063 0.501366 19.3085C0.486912 18.2254 0.588088 17.0983 0.761531 16.1615C0.906068 15.3565 1.15178 14.2733 1.31077 13.7464C1.45531 13.2195 1.71547 12.473 1.88892 12.0631C2.04791 11.6679 2.32253 11.0385 2.49597 10.6726C2.65496 10.3066 3.21865 9.35523 3.73898 8.55018C4.28822 7.68659 5.16989 6.57416 5.90703 5.8423C6.58635 5.15435 7.35239 4.40785 7.61256 4.18829C7.85827 3.96873 8.58095 3.45643 9.18801 3.04659C9.80951 2.63674 10.7635 2.09517 11.3271 1.81706C11.8908 1.55359 12.7291 1.18766 13.2061 1.02665C13.6831 0.851004 14.3624 0.646083 14.7238 0.55826Z" fill="#F14336"/>
    <path d="M17.1809 9.29656C17.7446 9.1941 18.4095 9.06236 18.6697 9.03309C18.9154 8.98917 19.5513 8.98917 20.0717 9.01845C20.592 9.06236 21.4159 9.17946 21.9073 9.29656C22.4132 9.41365 23.2948 9.72104 23.8585 9.99914C24.4367 10.2773 25.3039 10.8335 25.7809 11.214C26.2578 11.6092 26.9661 12.3265 27.3419 12.7949C27.7321 13.2779 28.2669 14.1268 28.5271 14.6977C28.8017 15.2539 29.1341 16.176 29.2642 16.7469C29.4087 17.3324 29.5099 18.357 29.5099 19.162C29.5099 19.9525 29.4087 20.9771 29.2642 21.5333C29.1341 22.0895 28.8595 22.9092 28.6571 23.3629C28.4403 23.8313 28.0501 24.5193 27.7899 24.8998C27.5153 25.295 27.125 25.8073 26.8938 26.0562C26.677 26.305 26.1422 26.788 25.7086 27.1393C25.275 27.476 24.5089 27.959 24.0031 28.2225C23.5116 28.4713 22.63 28.808 22.0518 28.969C21.3147 29.1739 20.5631 29.2617 19.4935 29.2617C18.395 29.2617 17.6724 29.1739 16.8919 28.9543C16.2993 28.7933 15.3887 28.4274 14.8684 28.1493C14.348 27.8858 13.5964 27.3735 13.1773 27.0369C12.7581 26.6856 12.1222 26.0415 11.7608 25.6024C11.3995 25.1633 10.8792 24.3729 10.6045 23.846C10.3299 23.319 9.98302 22.3676 9.80958 21.7236C9.61687 20.9429 9.52051 20.0891 9.52051 19.162C9.52051 18.235 9.61687 17.3812 9.80958 16.6005C9.98302 15.9565 10.3299 15.0051 10.6045 14.4781C10.8792 13.9512 11.4284 13.1169 11.8331 12.6046C12.2233 12.1069 12.9605 11.4043 13.4519 11.053C13.9578 10.6871 14.7672 10.1894 15.2586 9.95523C15.7645 9.7064 16.6317 9.41365 17.1809 9.29656Z" fill="#7E2D25"/>
</svg>
