<svg width="32" height="32" viewBox="0 0 32 32" fill="none" xmlns="http://www.w3.org/2000/svg">
    <g clip-path="url(#clip0_3274_3621)">
        <rect x="-8" y="-8" width="48" height="48" rx="2" fill="black"/>
        <path d="M3.99902 3.53461H10.999V0H-0.000976562V16H3.99902V9.64556H9.4276V6.19735H3.99902V3.53461Z" fill="#F9C511"/>
        <path d="M11.5058 13.9648C12.437 14.647 13.7756 14.988 15.4958 14.988C17.216 14.988 18.0556 14.6277 18.9932 13.9377C19.9891 13.1936 20.5 12.1083 20.5 10.7284V-1.03125L16.6404 -1.01192V10.7168C16.6404 11.1199 16.5111 11.2672 16.3817 11.3602C16.1748 11.523 16.0196 11.6082 15.5605 11.6082C15.1013 11.6082 14.875 11.523 14.6486 11.3602C14.5452 11.2749 14.4223 11.1276 14.4223 10.7168V-1.01192H9.99902V10.7478C9.99902 12.1276 10.5034 13.2129 11.5058 13.9571V13.9648Z" fill="#F9C511"/>
        <path d="M25 7L28 15H33V-0.96875L29 -0.96875V7L25 -0.96875H20.999V15H25V7Z" fill="#F9C511"/>
        <path d="M6.99902 21.7268H4.14563L3.99902 15H-1.00098V33H4.16046V25.664H6.99902V33H9.49902V15H6.99902V21.7268Z" fill="#F9C511"/>
        <path d="M19.4844 16.1591C18.5474 15.3892 17.2061 15 15.499 15C13.7919 15 12.4442 15.3892 11.5136 16.1591C10.506 16.9894 9.99902 18.1831 9.99902 19.7054V28.2946C9.99902 29.8169 10.506 31.0106 11.5136 31.8409C12.4506 32.6108 13.7919 33 15.499 33C17.2061 33 18.5539 32.6108 19.4844 31.8409C20.492 31.0106 20.999 29.8169 20.999 28.2946V19.7054C20.999 18.1831 20.492 16.9894 19.4844 16.1591ZM15.4926 29.1595C14.2026 29.1595 14.3631 28.4762 14.3631 28.1475V19.8438C14.3631 19.5151 14.2026 18.8318 15.4926 18.8318C16.7826 18.8318 16.6093 19.5151 16.6093 19.8438V28.1475C16.6093 28.4762 16.7826 29.1595 15.4926 29.1595Z" fill="#F9C511"/>
        <path d="M32.999 15L32.2861 25.5627L30.999 16H26.999L26.0182 25.5421L24.999 19H20.999L23.1604 33H28.1495L29.0981 27.2086L30.0527 33H34.8737L35.999 15H32.999Z" fill="#F9C511"/>
    </g>
    <defs>
        <clipPath id="clip0_3274_3621">
            <rect width="32" height="32" rx="5" fill="white"/>
        </clipPath>
    </defs>
</svg>
