<svg width="32" height="32" viewBox="0 0 32 32" fill="none" xmlns="http://www.w3.org/2000/svg">
    <g clip-path="url(#clip0_3272_3393)">
        <rect x="-8" y="-8" width="48" height="48" rx="2" fill="black"/>
        <path d="M14.804 20.0314V17.7891C14.784 17.7891 14.7615 17.7891 14.7341 17.7891C14.7041 17.7891 14.6792 17.7891 14.6592 17.7891V20.0314C14.6792 20.0314 14.7041 20.0314 14.7341 20.0314C14.7615 20.0314 14.784 20.0314 14.804 20.0314Z" fill="#F9C511"/>
        <path d="M5.06549 11.618H7.16772V10.498H3.36523V15.5676H5.06549V13.5542H6.70583V12.4617H5.06549V11.618Z" fill="#F9C511"/>
        <path d="M7.06963 13.5562V12.1003H5.43179V11.9834H7.40669V14.278C7.40669 14.8479 7.66635 15.3108 8.16069 15.6169C8.58014 15.8732 9.16187 16.0002 9.89341 16.0002C10.6249 16.0002 11.2067 15.8707 11.6261 15.6169C12.1205 15.3083 12.3826 14.8454 12.3826 14.2755V10.1367H9.97081V14.1884C9.95832 14.1884 9.94084 14.1884 9.91837 14.1884C9.88841 14.1884 9.86345 14.1884 9.84347 14.1859V10.5001V10.1367H3V15.933H5.4293V13.9196H7.06714V13.5562H7.06963ZM7.76871 10.5001H9.47646V14.2655C9.47646 14.3974 9.5239 14.4447 9.56384 14.4721C9.65123 14.5243 9.73362 14.5517 9.91588 14.5517C10.0981 14.5517 10.1506 14.5243 10.233 14.4721C10.2829 14.4422 10.3328 14.3949 10.3328 14.2655V10.5001H12.0156V14.2755C12.0156 14.7185 11.8209 15.0669 11.4339 15.3058C11.0743 15.5248 10.555 15.6368 9.89091 15.6368C9.22679 15.6368 8.70997 15.5273 8.35044 15.3083C7.96345 15.0669 7.76871 14.721 7.76871 14.278V10.5026V10.5001ZM6.70511 13.5562H5.06727V15.5696H3.36702V10.5001H7.1695V11.6175H5.06727V12.4612H6.70511V13.5537V13.5562Z" fill="#F9C511"/>
        <path d="M8.35322 15.3063C8.71274 15.5253 9.22956 15.6348 9.89369 15.6348C10.5578 15.6348 11.0746 15.5253 11.4366 15.3038C11.8211 15.0649 12.0184 14.7164 12.0184 14.2734V10.498H10.3356V14.2635C10.3356 14.3929 10.2857 14.4402 10.2357 14.4701C10.1558 14.5223 10.0959 14.5497 9.91865 14.5497C9.74139 14.5497 9.654 14.5223 9.56662 14.4701C9.52667 14.4427 9.47923 14.3954 9.47923 14.2635V10.498H7.77148V14.2734C7.77148 14.7164 7.96623 15.0649 8.35322 15.3038V15.3063Z" fill="#F9C511"/>
        <path d="M14.5186 13.0401L15.707 15.5736H17.3823V10.5041L15.7694 10.4941L15.7794 12.4702L14.9006 10.5041H12.9082V15.5736H14.5186V13.0401Z" fill="#F9C511"/>
        <path d="M14.5204 15.939H14.8849V14.6747L15.3792 15.73L15.4766 15.939H17.7486V10.1453H17.3866L15.7737 10.1328H15.4042V10.4987V10.7426L15.2344 10.3593L15.137 10.1428H12.543V15.939H14.5179H14.5204ZM12.91 10.5061H14.9049L15.7837 12.4722L15.7712 10.4962L17.3841 10.5061V15.5757H15.7088L14.5179 13.0421V15.5757H12.9075V10.5061H12.91Z" fill="#F9C511"/>
        <path d="M22.7759 15.5736V10.5663L22.7384 10.5041L21.163 10.4941L21.173 12.4702L20.2941 10.5041H18.3018V15.5736H19.9096V13.0401L21.1006 15.5736H22.7759Z" fill="#F9C511"/>
        <path d="M26.569 10.5117L25.8375 11.9527L25.096 10.5117H23.166L24.9087 13.4434V15.5813H26.6489L26.6539 13.4484L28.3692 10.5117H26.569Z" fill="#F9C511"/>
        <path d="M28.3679 10.1477H26.343L26.2407 10.3468L25.8312 11.1507L25.4168 10.3444L25.3144 10.1477H23.1373L22.7753 10.1428L21.1624 10.1328H20.7929V10.4987V10.7426L20.6231 10.3593L20.5257 10.1428H17.9316V15.939H20.2711V14.6747L20.7654 15.73L20.8628 15.939H23.1348V11.1806L24.5404 13.5424V15.944H27.0097V15.5806L27.0122 13.5449L28.68 10.6953L28.9995 10.1477H28.3654H28.3679ZM19.909 15.5757H18.2987V10.5061H20.2935L21.1724 12.4722L21.1599 10.4962L22.7378 10.5061L22.7753 10.5659V15.5732H21.1L19.909 13.0396V15.5732V15.5757ZM26.6476 15.5806H24.9074V13.4428L23.1647 10.5111H25.0922L25.8337 11.9496L26.5653 10.5111H28.3654L26.6501 13.4453V15.5781L26.6476 15.5806Z" fill="#F9C511"/>
        <path d="M9.97561 18.2636H9.06182V16.3672H7.3291V21.4417H9.06681V19.3736H9.96812V21.4417H11.7058V16.3672H9.97561V18.2636Z" fill="#F9C511"/>
        <path d="M9.97587 16H9.61135V17.8964H9.4266V16H6.96484V21.7987H9.43159V19.7306H9.60137V21.7987H12.0681V16H9.97587ZM11.7061 21.4379H9.96838V19.3697H9.06957V21.4379H7.33186V16.3658H9.06457V18.2623H9.97837V16.3658H11.7061V21.4379Z" fill="#F9C511"/>
        <path d="M16.2878 16.6577C15.9233 16.4362 15.4015 16.3242 14.7373 16.3242C14.0732 16.3242 13.5489 16.4362 13.1869 16.6577C12.7949 16.8966 12.5977 17.2401 12.5977 17.6781V20.1494C12.5977 20.5874 12.7949 20.9309 13.1869 21.1698C13.5514 21.3913 14.0732 21.5033 14.7373 21.5033C15.4015 21.5033 15.9258 21.3913 16.2878 21.1698C16.6798 20.9309 16.877 20.5874 16.877 20.1494V17.6781C16.877 17.2401 16.6798 16.8966 16.2878 16.6577ZM14.7348 20.3983C14.233 20.3983 14.2954 20.2017 14.2954 20.1071V17.7179C14.2954 17.6233 14.233 17.4267 14.7348 17.4267C15.2367 17.4267 15.1693 17.6233 15.1693 17.7179V20.1071C15.1693 20.2017 15.2367 20.3983 14.7348 20.3983Z" fill="#F9C511"/>
        <path d="M16.4769 16.3492C16.055 16.0928 15.4683 15.9609 14.7342 15.9609C14.0002 15.9609 13.4135 16.0904 12.9915 16.3492C12.4922 16.6528 12.2275 17.1132 12.2275 17.6782V20.1495C12.2275 20.7144 12.4922 21.1748 12.9915 21.4784C13.4135 21.7348 14.0002 21.8667 14.7342 21.8667C15.4683 21.8667 16.055 21.7373 16.4769 21.4784C16.9763 21.1748 17.2409 20.7144 17.2409 20.1495V17.6782C17.2409 17.1132 16.9763 16.6528 16.4769 16.3492ZM16.8764 20.1495C16.8764 20.5875 16.6792 20.9309 16.2872 21.1698C15.9227 21.3913 15.4009 21.5033 14.7367 21.5033C14.0726 21.5033 13.5483 21.3913 13.1863 21.1698C12.7943 20.9309 12.5971 20.5875 12.5971 20.1495V17.6782C12.5971 17.2401 12.7943 16.8967 13.1863 16.6578C13.5508 16.4363 14.0726 16.3243 14.7367 16.3243C15.4009 16.3243 15.9252 16.4363 16.2872 16.6578C16.6792 16.8967 16.8764 17.2401 16.8764 17.6782V20.1495Z" fill="#F9C511"/>
        <path d="M14.7349 17.4258C14.233 17.4258 14.2954 17.6224 14.2954 17.717V20.1061C14.2954 20.2007 14.233 20.3973 14.7349 20.3973C15.2367 20.3973 15.1693 20.2007 15.1693 20.1061V17.717C15.1693 17.6224 15.2367 17.4258 14.7349 17.4258ZM14.66 17.7916C14.6799 17.7916 14.7049 17.7916 14.7349 17.7916C14.7623 17.7916 14.7848 17.7916 14.8048 17.7916V20.034C14.7848 20.034 14.7623 20.034 14.7349 20.034C14.7049 20.034 14.6799 20.034 14.66 20.034V17.7916Z" fill="#F9C511"/>
        <path d="M22.5061 16.377L22.1167 18.7487L21.6947 16.377H19.9096L19.5101 18.7412L19.1131 16.377H17.4229L18.3217 21.4365H20.3964L20.7909 19.3435L21.1879 21.4365H23.1927L24.0766 16.377H22.5061Z" fill="#F9C511"/>
        <path d="M22.506 16.0162H22.1964L22.1465 16.3198L22.1015 16.5861L22.0541 16.3148L22.0017 16.0137H19.6023L19.5499 16.3173L19.51 16.5487L19.47 16.3173L19.4201 16.0137H16.9883L17.0632 16.4392L17.962 21.4988L18.0144 21.8H20.6984L20.7533 21.5038L20.7908 21.3072L20.8282 21.5038L20.8831 21.8H23.4972L23.5496 21.4988L24.4335 16.4392L24.5084 16.0137H22.506V16.0162ZM21.1877 21.4391L20.7908 19.3461L20.3963 21.4391H18.3215L17.4227 16.3795H19.1105L19.5075 18.7438L19.9069 16.3795H21.6921L22.1115 18.7538L22.501 16.3795H24.0714L23.1876 21.4391H21.1827H21.1877Z" fill="#F9C511"/>
    </g>
    <defs>
        <clipPath id="clip0_3272_3393">
            <rect width="32" height="32" rx="5" fill="white"/>
        </clipPath>
    </defs>
</svg>
